<mxfile host="app.diagrams.net" modified="2021-12-24T07:23:23.725Z" agent="5.0 (Windows NT 10.0; Win64; x64) AppleWebKit/537.36 (KHTML, like Gecko) Chrome/96.0.4664.110 Safari/537.36" etag="WxQ2_NjzvZ4JajsAMqp2" version="16.0.3" type="github">
  <diagram id="gvN4ynT3Cq1qDU4h4dno" name="Page-1">
    <mxGraphModel dx="782" dy="468" grid="1" gridSize="11" guides="1" tooltips="1" connect="1" arrows="1" fold="1" page="1" pageScale="1" pageWidth="850" pageHeight="1100" math="0" shadow="0">
      <root>
        <mxCell id="0" />
        <mxCell id="1" parent="0" />
        <mxCell id="bSjmI_5-JD3IcqK51i68-1" value="&lt;span style=&quot;font-size: 24px&quot;&gt;&lt;span style=&quot;font-size: 24px&quot;&gt;[&lt;/span&gt;2,0,2,1,1,0]&lt;br&gt;&lt;div style=&quot;text-align: left&quot;&gt;&lt;span&gt;&amp;nbsp; j&amp;nbsp; i&lt;/span&gt;&lt;/div&gt;&lt;br&gt;&lt;/span&gt;" style="rounded=1;whiteSpace=wrap;html=1;fontStyle=1" vertex="1" parent="1">
          <mxGeometry x="88" y="176" width="297" height="94" as="geometry" />
        </mxCell>
      </root>
    </mxGraphModel>
  </diagram>
</mxfile>
